<svg xmlns="http://www.w3.org/2000/svg" width="16" height="16" fill="none" viewBox="0 0 16 16"><g clip-path="url(#clip0_601_2)"><circle cx="8" cy="8" r="8" fill="#000"/><path fill="#FF6B79" fill-rule="evenodd" d="M5 11H3.5V14H5L5 17H11V11H5Z" clip-rule="evenodd"/><rect width="1.5" height="3" x="3.5" y="14" fill="#FEE868"/><rect width="1.5" height="3" x="2" y="11" fill="#F9006F"/><rect width="1.5" height="3" x="2" y="14" fill="#FFC352"/><path fill="#05C7F2" fill-rule="evenodd" d="M9.5 2H8V3.5H3.5V5L8 5H9.5L14 5V3.5H9.5V2ZM2 11V5H14V11H2Z" clip-rule="evenodd"/><rect width="7.5" height="4.5" x="5" y="6.5" fill="#FEE868"/><rect width="1.5" height="1.5" x="6.5" y="8" fill="#F9006F"/><path fill="#05F2C7" fill-rule="evenodd" d="M11 2H9.5V3.5L5 3.5V6.5H14V3.5L11 3.5V2ZM11 8L11 9.5H14V6.5H11H9.5V8H11ZM6.5 6.5H5H3.5V11H5L5 8H6.5V6.5Z" clip-rule="evenodd"/></g><defs><clipPath id="clip0_601_2"><rect width="16" height="16" fill="#fff"/></clipPath></defs></svg>