<?xml version="1.0" encoding="utf-8"?>
<svg viewBox="0 0 450 450" width="450" height="450" xmlns="http://www.w3.org/2000/svg">
  <ellipse style="stroke: rgb(0, 0, 0); stroke-width: 0px;" cx="315.003" cy="250" rx="25.006" ry="25" transform="matrix(0.999756, 0.022085, 0, 1.000244, -239.926102, -182.459671)"/>
  <rect x="76.502" y="75.558" width="6.002" height="3.001" style="stroke: rgb(242, 5, 68); fill: rgb(242, 5, 68);"/>
  <rect x="73.5" width="3.001" height="3.001" style="stroke: rgb(242, 5, 68); fill: rgb(242, 5, 68);" y="54.553"/>
  <rect x="70.5" y="57.554" width="3.001" height="3.001" style="stroke: rgb(242, 5, 68); fill: rgb(242, 5, 68);"/>
  <rect x="76.502" y="57.554" width="3.001" height="3.001" style="stroke: rgb(242, 5, 68); fill: rgb(242, 5, 68);"/>
  <rect x="67.499" y="60.555" width="3.001" height="3.001" style="stroke: rgb(242, 5, 68); fill: rgb(242, 5, 68);"/>
  <rect x="64.498" y="63.556" width="3.001" height="3.001" style="stroke: rgb(242, 5, 68); fill: rgb(242, 5, 68);"/>
  <rect x="79.502" y="60.555" width="3.001" height="3.001" style="stroke: rgb(242, 5, 68); fill: rgb(242, 5, 68);"/>
  <rect x="82.503" y="63.556" width="3.001" height="3.001" style="stroke: rgb(242, 5, 68); fill: rgb(242, 5, 68);"/>
  <rect x="61.497" y="72.558" width="3.001" height="15.004" style="stroke: rgb(242, 5, 68); fill: rgb(242, 5, 68);"/>
  <rect x="85.502" y="72.558" width="3.001" height="15.004" style="stroke: rgb(242, 5, 68); fill: rgb(242, 5, 68);"/>
  <rect x="61.497" y="87.561" width="27.007" height="3.001" style="stroke: rgb(242, 5, 68); fill: rgb(242, 5, 68);"/>
  <rect x="61.497" y="66.556" width="3.001" height="3.001" style="stroke: rgb(242, 5, 68); fill: rgb(242, 5, 68);"/>
  <rect x="85.502" y="66.556" width="3.001" height="3.001" style="stroke: rgb(242, 5, 68); fill: rgb(242, 5, 68);"/>
  <rect x="58.497" y="69.557" width="33.008" height="3.001" style="stroke: rgb(242, 5, 68); fill: rgb(242, 5, 68);"/>
  <rect x="67.499" y="81.56" width="6.002" height="6.002" style="stroke: rgb(242, 5, 68); fill: rgb(242, 5, 68);"/>
  <text style="fill: rgb(1, 1, 0); font-family: Arial, sans-serif; font-size: 13.3px; font-weight: 700; white-space: pre;" x="57.371" y="112.899">Home</text>
  <ellipse style="stroke: rgb(0, 0, 0); stroke-width: 0px;" cx="315.003" cy="250" rx="25.006" ry="25" transform="matrix(0.999756, 0.022085, 0, 1.000244, -139.926224, -181.459183)"/>
  <rect x="167.498" y="59.055" width="15.004" height="3.001" style="fill: rgb(233, 123, 0); stroke-width: 0px;"/>
  <rect x="164.497" y="62.056" width="3.001" height="27.007" style="fill: rgb(233, 123, 0); stroke-width: 0px;"/>
  <rect x="182.502" y="62.056" width="3.001" height="27.007" style="fill: rgb(233, 123, 0); stroke-width: 0px;"/>
  <rect x="167.498" y="65.057" width="15.004" height="3.001" style="fill: rgb(233, 123, 0); stroke-width: 0px;"/>
  <rect x="167.498" y="71.058" width="15.004" height="3.001" style="fill: rgb(233, 123, 0); stroke-width: 0px;"/>
  <rect x="167.498" y="77.059" width="15.004" height="3.001" style="fill: rgb(233, 123, 0); stroke-width: 0px;"/>
  <rect x="167.498" y="83.061" width="15.004" height="3.001" style="fill: rgb(233, 123, 0); stroke-width: 0px;"/>
  <rect x="167.498" y="89.062" width="15.004" height="3.001" style="fill: rgb(233, 123, 0); stroke-width: 0px;"/>
  <text style="fill: rgb(1, 1, 0); font-family: Arial, sans-serif; font-size: 13.3px; font-weight: 700; white-space: pre;" x="165.65" y="112.048">DB</text>
  <ellipse style="stroke: rgb(0, 0, 0); stroke-width: 0px;" cx="315.003" cy="250" rx="25.006" ry="25" transform="matrix(0.999756, 0.022085, 0, 1.000244, -39.926247, -181.459473)"/>
  <rect x="259.003" y="65.7" width="3.001" height="21.005" style="stroke: rgb(0, 0, 0); fill: rgb(0, 87, 183);"/>
  <rect x="262.003" y="62.698" width="9.003" height="3.001" style="stroke: rgb(0, 0, 0); fill: rgb(0, 87, 183);"/>
  <rect x="271.006" y="65.7" width="3.001" height="6.002" style="stroke: rgb(0, 0, 0); fill: rgb(0, 87, 183);"/>
  <rect x="259.003" y="71.701" width="12.003" height="3.001" style="stroke: rgb(0, 0, 0); stroke-width: 0px; fill: rgb(0, 87, 183);"/>
  <rect x="280.007" y="59.698" width="9.003" height="30.007" style="stroke: rgb(0, 0, 0); fill: rgb(0, 87, 183);"/>
  <text style="fill: rgb(1, 1, 0); font-family: Arial, sans-serif; font-size: 13.3px; font-weight: 700; white-space: pre;" x="262.458" y="112.075">Pen</text>
  <text style="white-space: pre; fill: rgb(51, 51, 51); font-family: Arial, sans-serif; font-size: 7.2px;" x="312.91" y="104.051"> </text>
  <ellipse style="stroke: rgb(0, 0, 0); stroke-width: 0px;" cx="375" cy="75" rx="25" ry="25"/>
  <rect x="375" y="81" width="3" height="9" style="stroke: rgb(0, 0, 0); stroke-width: 0px; fill: rgb(255, 255, 255);"/>
  <rect x="378" y="75" width="3" height="6" style="stroke: rgb(0, 0, 0); stroke-width: 0px; fill: rgb(255, 255, 255);"/>
  <rect x="381" y="69" width="3" height="6" style="stroke: rgb(0, 0, 0); stroke-width: 0px; fill: rgb(255, 255, 255);"/>
  <rect y="81" width="9" height="9" style="stroke: rgb(0, 0, 0); fill: rgb(126, 186, 228);" x="363"/>
  <rect x="384" y="60" width="3" height="9" style="stroke: rgb(0, 0, 0); stroke-width: 0px; fill: rgb(255, 255, 255);"/>
  <text style="fill: rgb(1, 1, 0); font-family: Arial, sans-serif; font-size: 13.3px; font-weight: 700; white-space: pre;" x="351.246" y="112.182">Dotfiles</text>
  <ellipse style="stroke: rgb(0, 0, 0); stroke-width: 0px;" cx="75" cy="175" rx="25" ry="25"/>
  <rect x="57" y="167.5" width="36" height="3" style="stroke: rgb(0, 0, 0); stroke-width: 0px; fill: rgb(204, 166, 196);"/>
  <rect x="57" y="170.5" width="3" height="6" style="stroke: rgb(0, 0, 0); stroke-width: 0px; fill: rgb(204, 166, 196);"/>
  <rect x="59.999" y="176.5" width="3" height="3" style="stroke: rgb(0, 0, 0); stroke-width: 0px; fill: rgb(204, 166, 196);"/>
  <rect x="90" y="170.5" width="3" height="6" style="stroke: rgb(0, 0, 0); stroke-width: 0px; fill: rgb(204, 166, 196);"/>
  <rect x="86.999" y="176.5" width="3" height="3" style="stroke: rgb(0, 0, 0); stroke-width: 0px; fill: rgb(204, 166, 196);"/>
  <rect x="63" y="179.5" width="6" height="3" style="stroke: rgb(0, 0, 0); stroke-width: 0px; fill: rgb(204, 166, 196);"/>
  <rect x="80.999" y="179.5" width="6" height="3" style="stroke: rgb(0, 0, 0); stroke-width: 0px; fill: rgb(204, 166, 196);"/>
  <rect x="69" y="176.5" width="3" height="3" style="stroke: rgb(0, 0, 0); stroke-width: 0px; fill: rgb(204, 166, 196);"/>
  <rect x="78" y="176.5" width="3" height="3" style="stroke: rgb(0, 0, 0); stroke-width: 0px; fill: rgb(204, 166, 196);"/>
  <rect x="71.999" y="170.5" width="6" height="6" style="stroke: rgb(0, 0, 0); stroke-width: 0px; fill: rgb(204, 166, 196);"/>
  <text style="fill: rgb(1, 1, 0); font-family: Arial, sans-serif; font-size: 10.8px; font-weight: 700; white-space: pre;" x="50" y="209.632">Awesome</text>
  <ellipse style="stroke: rgb(0, 0, 0); stroke-width: 0px;" cx="175" cy="175" rx="25" ry="25"/>
  <rect x="166.902" y="163.165" width="16.698" height="2.385" style="stroke: rgb(0, 0, 0); stroke-width: 0px; fill: rgb(231, 19, 47);"/>
  <rect x="171.673" y="165.551" width="7.156" height="11.927" style="stroke: rgb(0, 0, 0); stroke-width: 0px; fill: rgb(231, 19, 47);"/>
  <rect x="169.288" y="177.478" width="11.927" height="2.385" style="stroke: rgb(0, 0, 0); stroke-width: 0px; fill: rgb(231, 19, 47);"/>
  <rect x="166.902" y="179.864" width="16.698" height="2.385" style="stroke: rgb(0, 0, 0); stroke-width: 0px; fill: rgb(231, 19, 47);"/>
  <rect x="164.517" y="182.249" width="21.469" height="2.385" style="stroke: rgb(0, 0, 0); stroke-width: 0px; fill: rgb(231, 19, 47);"/>
  <rect x="174.059" y="184.635" width="2.385" height="7.156" style="stroke: rgb(0, 0, 0); stroke-width: 0px; fill: rgb(231, 19, 47);"/>
  <rect x="169.288" width="11.927" height="2.385" style="stroke: rgb(0, 0, 0); stroke-width: 0px; fill: rgb(231, 19, 47);" y="160.78"/>
  <text style="fill: rgb(1, 1, 0); font-family: Arial, sans-serif; font-size: 10.8px; font-weight: 700; white-space: pre;" x="150" y="209.861"> </text>
  <text style="fill: rgb(1, 1, 0); font-family: Arial, sans-serif; font-size: 11.5px; font-weight: 700; white-space: pre;" x="150" y="210.325">Pinboard</text>
  <ellipse style="stroke: rgb(0, 0, 0); stroke-width: 0px;" cx="275" cy="175" rx="25" ry="25"/>
  <rect x="262" y="183" width="3" height="6" style="stroke: rgb(0, 0, 0); stroke-width: 0px; stroke-opacity: 0; fill: rgb(228, 66, 51);"/>
  <rect x="265" y="180" width="3" height="6" style="stroke: rgb(0, 0, 0); stroke-width: 0px; stroke-opacity: 0; fill: rgb(228, 66, 51);"/>
  <rect x="268" y="177" width="3" height="6" style="stroke: rgb(0, 0, 0); stroke-width: 0px; stroke-opacity: 0; fill: rgb(228, 66, 51);"/>
  <rect x="271" y="174" width="3" height="6" style="stroke: rgb(0, 0, 0); stroke-width: 0px; stroke-opacity: 0; fill: rgb(228, 66, 51);"/>
  <rect x="274" y="171" width="3" height="6" style="stroke: rgb(0, 0, 0); stroke-width: 0px; stroke-opacity: 0; fill: rgb(228, 66, 51);"/>
  <rect x="277" y="168" width="3" height="6" style="stroke: rgb(0, 0, 0); stroke-width: 0px; stroke-opacity: 0; fill: rgb(228, 66, 51);"/>
  <rect x="280" y="165" width="3" height="6" style="stroke: rgb(0, 0, 0); stroke-width: 0px; stroke-opacity: 0; fill: rgb(228, 66, 51);"/>
  <rect x="283" y="162" width="3" height="6" style="stroke: rgb(0, 0, 0); stroke-width: 0px; stroke-opacity: 0; fill: rgb(228, 66, 51);"/>
  <rect x="286" y="159" width="3" height="6" style="stroke: rgb(0, 0, 0); stroke-width: 0px; stroke-opacity: 0; fill: rgb(228, 66, 51);"/>
  <rect x="259" y="174" width="3" height="12" style="stroke: rgb(0, 0, 0); stroke-width: 0px; stroke-opacity: 0; fill: rgb(228, 66, 51);"/>
  <rect x="256" y="177" width="3" height="6" style="stroke: rgb(0, 0, 0); stroke-width: 0px; stroke-opacity: 0; fill: rgb(228, 66, 51);"/>
  <text style="fill: rgb(1, 1, 0); font-family: Arial, sans-serif; font-size: 13.3px; font-weight: 700; white-space: pre;" x="260.5" y="212.079">Todo</text>
  <text style="white-space: pre; fill: rgb(51, 51, 51); font-family: Arial, sans-serif; font-size: 9.4px;" x="327.049" y="216.407">`</text>
  <ellipse style="stroke: rgb(0, 0, 0); stroke-width: 0px;" cx="375" cy="175" rx="25" ry="25"/>
  <rect x="362" y="159" width="3" height="33" style="stroke: rgb(0, 0, 0); stroke-width: 0px; fill: rgb(61, 166, 57);"/>
  <rect x="383" y="159" width="3" height="33" style="stroke: rgb(0, 0, 0); stroke-width: 0px; fill: rgb(61, 166, 57);"/>
  <rect x="365" y="159" width="18" height="3" style="stroke: rgb(0, 0, 0); stroke-width: 0px; fill: rgb(61, 166, 57);"/>
  <rect x="365" y="189" width="18" height="3" style="stroke: rgb(0, 0, 0); stroke-width: 0px; fill: rgb(61, 166, 57);"/>
  <rect x="368" y="165" width="3" height="3" style="stroke: rgb(0, 0, 0); stroke-width: 0px; fill: rgb(61, 166, 57);"/>
  <rect x="368" y="171" width="12" height="3" style="stroke: rgb(0, 0, 0); stroke-width: 0px; fill: rgb(61, 166, 57);"/>
  <rect x="368" y="176.999" width="12" height="3" style="stroke: rgb(0, 0, 0); stroke-width: 0px; fill: rgb(61, 166, 57);"/>
  <rect x="368" y="183" width="12" height="3" style="stroke: rgb(0, 0, 0); stroke-width: 0px; fill: rgb(61, 166, 57);"/>
  <rect x="373.999" y="165.171" width="6" height="3" style="stroke: rgb(0, 0, 0); stroke-width: 0px; fill: rgb(61, 166, 57);"/>
  <text style="fill: rgb(1, 1, 0); font-family: Arial, sans-serif; font-size: 13.3px; font-weight: 700; white-space: pre;" x="359.765" y="211.984">Todo</text>
</svg>