<?xml version="1.0" encoding="UTF-8" standalone="no"?>
<svg
   width="450"
   height="450"
   viewBox="0 0 450 450"
   version="1.1"
   id="svg71"
   sodipodi:docname="favicons.svg"
   xml:space="preserve"
   inkscape:version="1.3.2 (091e20e, 2023-11-25)"
   xmlns:inkscape="http://www.inkscape.org/namespaces/inkscape"
   xmlns:sodipodi="http://sodipodi.sourceforge.net/DTD/sodipodi-0.dtd"
   xmlns="http://www.w3.org/2000/svg"
   xmlns:svg="http://www.w3.org/2000/svg"><defs
     id="defs71" /><sodipodi:namedview
     id="namedview71"
     pagecolor="#505050"
     bordercolor="#eeeeee"
     borderopacity="1"
     inkscape:showpageshadow="0"
     inkscape:pageopacity="0"
     inkscape:pagecheckerboard="0"
     inkscape:deskcolor="#505050"
     showgrid="true"
     inkscape:zoom="8.7111111"
     inkscape:cx="92.927296"
     inkscape:cy="278.95408"
     inkscape:window-width="1920"
     inkscape:window-height="1226"
     inkscape:window-x="0"
     inkscape:window-y="0"
     inkscape:window-maximized="1"
     inkscape:current-layer="svg71"><inkscape:grid
       id="grid71"
       units="px"
       originx="0"
       originy="0"
       spacingx="1"
       spacingy="1"
       empcolor="#0099e5"
       empopacity="0.30196078"
       color="#0099e5"
       opacity="0.14901961"
       empspacing="5"
       dotted="false"
       gridanglex="30"
       gridanglez="30"
       visible="true" /></sodipodi:namedview><ellipse
     style="stroke:#000;stroke-width:0"
     cx="315.003"
     cy="250"
     rx="25.006"
     ry="25"
     transform="matrix(0.999756, 0.022085, 0, 1.000244, -239.926102, -182.459671)"
     id="ellipse1" /><rect
     width="6.002"
     height="3.001"
     x="76.502"
     y="75.558"
     style="stroke:#f20544;fill:#f20544"
     id="rect1" /><rect
     width="3.001"
     height="3.001"
     x="73.5"
     style="stroke:#f20544;fill:#f20544"
     y="54.553"
     id="rect2" /><rect
     width="3.001"
     height="3.001"
     x="70.5"
     y="57.554"
     style="stroke:#f20544;fill:#f20544"
     id="rect3" /><rect
     width="3.001"
     height="3.001"
     x="76.502"
     y="57.554"
     style="stroke:#f20544;fill:#f20544"
     id="rect4" /><rect
     width="3.001"
     height="3.001"
     x="67.499"
     y="60.555"
     style="stroke:#f20544;fill:#f20544"
     id="rect5" /><rect
     width="3.001"
     height="3.001"
     x="64.498"
     y="63.556"
     style="stroke:#f20544;fill:#f20544"
     id="rect6" /><rect
     width="3.001"
     height="3.001"
     x="79.502"
     y="60.555"
     style="stroke:#f20544;fill:#f20544"
     id="rect7" /><rect
     width="3.001"
     height="3.001"
     x="82.503"
     y="63.556"
     style="stroke:#f20544;fill:#f20544"
     id="rect8" /><rect
     width="3.001"
     height="15.004"
     x="61.497"
     y="72.558"
     style="stroke:#f20544;fill:#f20544"
     id="rect9" /><rect
     width="3.001"
     height="15.004"
     x="85.502"
     y="72.558"
     style="stroke:#f20544;fill:#f20544"
     id="rect10" /><rect
     width="27.007"
     height="3.001"
     x="61.497"
     y="87.561"
     style="stroke:#f20544;fill:#f20544"
     id="rect11" /><rect
     width="3.001"
     height="3.001"
     x="61.497"
     y="66.556"
     style="stroke:#f20544;fill:#f20544"
     id="rect12" /><rect
     width="3.001"
     height="3.001"
     x="85.502"
     y="66.556"
     style="stroke:#f20544;fill:#f20544"
     id="rect13" /><rect
     width="33.008"
     height="3.001"
     x="58.497"
     y="69.557"
     style="stroke:#f20544;fill:#f20544"
     id="rect14" /><rect
     width="6.002"
     height="6.002"
     x="67.499"
     y="81.56"
     style="stroke:#f20544;fill:#f20544"
     id="rect15" /><text
     style="fill:#010100;font-family:Arial,sans-serif;font-size:13.3px;font-weight:700;white-space:pre"
     x="57.371"
     y="112.899"
     id="text15">Home</text><ellipse
     style="stroke:#000;stroke-width:0"
     cx="315.003"
     cy="250"
     rx="25.006"
     ry="25"
     transform="matrix(0.999756, 0.022085, 0, 1.000244, -139.926224, -181.459183)"
     id="ellipse15" /><rect
     width="15.004"
     height="3.001"
     x="167.498"
     y="59.055"
     style="fill:#e97b00;stroke-width:0"
     id="rect16" /><rect
     width="3.001"
     height="27.007"
     x="164.497"
     y="62.056"
     style="fill:#e97b00;stroke-width:0"
     id="rect17" /><rect
     width="3.001"
     height="27.007"
     x="182.502"
     y="62.056"
     style="fill:#e97b00;stroke-width:0"
     id="rect18" /><rect
     width="15.004"
     height="3.001"
     x="167.498"
     y="65.057"
     style="fill:#e97b00;stroke-width:0"
     id="rect19" /><rect
     width="15.004"
     height="3.001"
     x="167.498"
     y="71.058"
     style="fill:#e97b00;stroke-width:0"
     id="rect20" /><rect
     width="15.004"
     height="3.001"
     x="167.498"
     y="77.059"
     style="fill:#e97b00;stroke-width:0"
     id="rect21" /><rect
     width="15.004"
     height="3.001"
     x="167.498"
     y="83.061"
     style="fill:#e97b00;stroke-width:0"
     id="rect22" /><rect
     width="15.004"
     height="3.001"
     x="167.498"
     y="89.062"
     style="fill:#e97b00;stroke-width:0"
     id="rect23" /><text
     style="fill:#010100;font-family:Arial,sans-serif;font-size:13.3px;font-weight:700;white-space:pre"
     x="165.65"
     y="112.048"
     id="text23">DB</text><ellipse
     style="stroke:#000;stroke-width:0"
     cx="315.003"
     cy="250"
     rx="25.006"
     ry="25"
     transform="matrix(0.999756, 0.022085, 0, 1.000244, -39.926247, -181.459473)"
     id="ellipse23" /><rect
     width="3.001"
     height="21.005"
     x="259.003"
     y="65.7"
     style="stroke:#000;fill:#0057b7"
     id="rect24" /><rect
     width="9.003"
     height="3.001"
     x="262.003"
     y="62.698"
     style="stroke:#000;fill:#0057b7"
     id="rect25" /><rect
     width="3.001"
     height="6.002"
     x="271.006"
     y="65.7"
     style="stroke:#000;fill:#0057b7"
     id="rect26" /><rect
     width="12.003"
     height="3.001"
     x="259.003"
     y="71.701"
     style="stroke:#000;stroke-width:0;fill:#0057b7"
     id="rect27" /><rect
     width="9.003"
     height="30.007"
     x="280.007"
     y="59.698"
     style="stroke:#000;fill:#0057b7"
     id="rect28" /><text
     style="fill:#010100;font-family:Arial,sans-serif;font-size:13.3px;font-weight:700;white-space:pre"
     x="262.458"
     y="112.075"
     id="text28">Pen</text><ellipse
     style="stroke:#000;stroke-width:0"
     cx="375"
     cy="75"
     rx="25"
     ry="25"
     id="ellipse28" /><rect
     width="3"
     height="9"
     x="375"
     y="81"
     style="stroke:#000;stroke-width:0;fill:#fff"
     id="rect29" /><rect
     width="3"
     height="6"
     x="378"
     y="75"
     style="stroke:#000;stroke-width:0;fill:#fff"
     id="rect30" /><rect
     width="3"
     height="6"
     x="381"
     y="69"
     style="stroke:#000;stroke-width:0;fill:#fff"
     id="rect31" /><rect
     width="9"
     height="9"
     x="363"
     y="81"
     style="stroke:#000;fill:#7ebae4"
     id="rect32" /><rect
     width="3"
     height="9"
     x="384"
     y="60"
     style="stroke:#000;stroke-width:0;fill:#fff"
     id="rect33" /><text
     style="fill:#010100;font-family:Arial,sans-serif;font-size:13.3px;font-weight:700;white-space:pre"
     x="351.246"
     y="112.182"
     id="text33">Dotfiles</text><ellipse
     style="stroke:#000;stroke-width:0"
     cx="75"
     cy="175"
     rx="25"
     ry="25"
     id="ellipse33" /><rect
     width="36"
     height="3"
     x="57"
     y="167.5"
     style="stroke:#000;stroke-width:0;fill:#cca6c4"
     id="rect34" /><rect
     width="3"
     height="6"
     x="57"
     y="170.5"
     style="stroke:#000;stroke-width:0;fill:#cca6c4"
     id="rect35" /><rect
     width="3"
     height="3"
     x="59.999"
     y="176.5"
     style="stroke:#000;stroke-width:0;fill:#cca6c4"
     id="rect36" /><rect
     width="3"
     height="6"
     x="90"
     y="170.5"
     style="stroke:#000;stroke-width:0;fill:#cca6c4"
     id="rect37" /><rect
     width="3"
     height="3"
     x="86.999"
     y="176.5"
     style="stroke:#000;stroke-width:0;fill:#cca6c4"
     id="rect38" /><rect
     width="6"
     height="3"
     x="63"
     y="179.5"
     style="stroke:#000;stroke-width:0;fill:#cca6c4"
     id="rect39" /><rect
     width="6"
     height="3"
     x="80.999"
     y="179.5"
     style="stroke:#000;stroke-width:0;fill:#cca6c4"
     id="rect40" /><rect
     width="3"
     height="3"
     x="69"
     y="176.5"
     style="stroke:#000;stroke-width:0;fill:#cca6c4"
     id="rect41" /><rect
     width="3"
     height="3"
     x="78"
     y="176.5"
     style="stroke:#000;stroke-width:0;fill:#cca6c4"
     id="rect42" /><rect
     width="6"
     height="6"
     x="71.999"
     y="170.5"
     style="stroke:#000;stroke-width:0;fill:#cca6c4"
     id="rect43" /><text
     style="fill:#010100;font-family:Arial,sans-serif;font-size:10.8px;font-weight:700;white-space:pre"
     x="50"
     y="209.632"
     id="text43">Awesome</text><ellipse
     style="stroke:#000;stroke-width:0"
     cx="175"
     cy="175"
     rx="25"
     ry="25"
     id="ellipse43" /><rect
     width="16.698"
     height="2.385"
     x="166.902"
     y="163.165"
     style="stroke:#000;stroke-width:0;fill:#e7132f"
     id="rect44" /><rect
     width="7.156"
     height="11.927"
     x="171.673"
     y="165.551"
     style="stroke:#000;stroke-width:0;fill:#e7132f"
     id="rect45" /><rect
     width="11.927"
     height="2.385"
     x="169.288"
     y="177.478"
     style="stroke:#000;stroke-width:0;fill:#e7132f"
     id="rect46" /><rect
     width="16.698"
     height="2.385"
     x="166.902"
     y="179.864"
     style="stroke:#000;stroke-width:0;fill:#e7132f"
     id="rect47" /><rect
     width="21.469"
     height="2.385"
     x="164.517"
     y="182.249"
     style="stroke:#000;stroke-width:0;fill:#e7132f"
     id="rect48" /><rect
     width="2.385"
     height="7.156"
     x="174.059"
     y="184.635"
     style="stroke:#000;stroke-width:0;fill:#e7132f"
     id="rect49" /><rect
     width="11.927"
     height="2.385"
     x="169.288"
     style="stroke:#000;stroke-width:0;fill:#e7132f"
     y="160.78"
     id="rect50" /><text
     style="fill:#010100;font-family:Arial,sans-serif;font-size:11.5px;font-weight:700;white-space:pre"
     x="150"
     y="210.325"
     id="text50">Pinboard</text><ellipse
     style="stroke:#000;stroke-width:0"
     cx="275"
     cy="175"
     rx="25"
     ry="25"
     id="ellipse50" /><rect
     width="3"
     height="6"
     x="262"
     y="183"
     style="stroke:#000;stroke-width:0;stroke-opacity:0;fill:#e44233"
     id="rect51" /><rect
     width="3"
     height="6"
     x="265"
     y="180"
     style="stroke:#000;stroke-width:0;stroke-opacity:0;fill:#e44233"
     id="rect52" /><rect
     width="3"
     height="6"
     x="268"
     y="177"
     style="stroke:#000;stroke-width:0;stroke-opacity:0;fill:#e44233"
     id="rect53" /><rect
     width="3"
     height="6"
     x="271"
     y="174"
     style="stroke:#000;stroke-width:0;stroke-opacity:0;fill:#e44233"
     id="rect54" /><rect
     width="3"
     height="6"
     x="274"
     y="171"
     style="stroke:#000;stroke-width:0;stroke-opacity:0;fill:#e44233"
     id="rect55" /><rect
     width="3"
     height="6"
     x="277"
     y="168"
     style="stroke:#000;stroke-width:0;stroke-opacity:0;fill:#e44233"
     id="rect56" /><rect
     width="3"
     height="6"
     x="280"
     y="165"
     style="stroke:#000;stroke-width:0;stroke-opacity:0;fill:#e44233"
     id="rect57" /><rect
     width="3"
     height="6"
     x="283"
     y="162"
     style="stroke:#000;stroke-width:0;stroke-opacity:0;fill:#e44233"
     id="rect58" /><rect
     width="3"
     height="6"
     x="286"
     y="159"
     style="stroke:#000;stroke-width:0;stroke-opacity:0;fill:#e44233"
     id="rect59" /><rect
     width="3"
     height="12"
     x="259"
     y="174"
     style="stroke:#000;stroke-width:0;stroke-opacity:0;fill:#e44233"
     id="rect60" /><rect
     width="3"
     height="6"
     x="256"
     y="177"
     style="stroke:#000;stroke-width:0;stroke-opacity:0;fill:#e44233"
     id="rect61" /><text
     style="fill:#010100;font-family:Arial,sans-serif;font-size:13.3px;font-weight:700;white-space:pre"
     x="260.5"
     y="212.079"
     id="text61">Todo</text><text
     style="white-space:pre;fill:#333;font-family:Arial,sans-serif;font-size:9.4px"
     x="327.049"
     y="216.407"
     id="text62">`</text><ellipse
     style="stroke:#000;stroke-width:0"
     cx="375"
     cy="175"
     rx="25"
     ry="25"
     id="ellipse62" /><rect
     width="3"
     height="33"
     x="362"
     y="159"
     style="stroke:#000;stroke-width:0;fill:#3da639"
     id="rect62" /><rect
     width="3"
     height="33"
     x="383"
     y="159"
     style="stroke:#000;stroke-width:0;fill:#3da639"
     id="rect63" /><rect
     width="18"
     height="3"
     x="365"
     y="159"
     style="stroke:#000;stroke-width:0;fill:#3da639"
     id="rect64" /><rect
     width="18"
     height="3"
     x="365"
     y="189"
     style="stroke:#000;stroke-width:0;fill:#3da639"
     id="rect65" /><rect
     width="3"
     height="3"
     x="368"
     y="165"
     style="stroke:#000;stroke-width:0;fill:#3da639"
     id="rect66" /><rect
     width="12"
     height="3"
     x="368"
     y="171"
     style="stroke:#000;stroke-width:0;fill:#3da639"
     id="rect67" /><rect
     width="12"
     height="3"
     x="368"
     y="176.999"
     style="stroke:#000;stroke-width:0;fill:#3da639"
     id="rect68" /><rect
     width="12"
     height="3"
     x="368"
     y="183"
     style="stroke:#000;stroke-width:0;fill:#3da639"
     id="rect69" /><rect
     width="6"
     height="3"
     x="373.999"
     y="165.171"
     style="stroke:#000;stroke-width:0;fill:#3da639"
     id="rect70" /><text
     style="fill:#010100;font-family:Arial,sans-serif;font-size:13.3px;font-weight:700;white-space:pre"
     x="359.765"
     y="211.984"
     id="text70">Todo</text><ellipse
     style="fill:#0d0e1c;stroke:#121212;fill-opacity:1"
     cx="75.502"
     cy="275.121"
     rx="24.879"
     ry="24.879"
     id="ellipse70"
     inkscape:export-filename="blogroll.png"
     inkscape:export-xdpi="968.35974"
     inkscape:export-ydpi="968.35974" /><path
     d="M 75.502 250.242 C 84.952 250.242 93.171 255.51 97.383 263.27 L 87.539 280.515 L 62.565 266.26 L 71.528 250.558 C 72.822 250.35 74.15 250.242 75.502 250.242 Z M 67.56 269.111 L 82.545 277.664 L 79.694 282.659 L 71.706 278.1 L 74.699 279.809 L 68.997 289.798 L 64.002 286.947 L 69.704 276.957 L 64.709 274.106 L 67.56 269.111 Z"
     style="opacity:1;fill:#2fafff;stroke:#2fafff;fill-opacity:1;stroke-opacity:1"
     id="path70" /><path
     d="M 85.498 272.76 L 70.513 264.206 L 78.371 250.441 C 84.441 251.116 89.852 253.974 93.8 258.214 L 85.498 272.76 Z"
     style="stroke:#ffffff;fill:#ffffff;stroke-opacity:1;fill-opacity:1"
     id="path71" /><rect
     width="5.772"
     height="5.772"
     x="43.519"
     y="13.315"
     style="fill:#ffffff;stroke:#ffffff;stroke-opacity:1;fill-opacity:1"
     transform="matrix(0.868484, 0.495718, -0.495718, 0.868484, 35.688808, 248.772156)"
     id="rect71" /><text
     style="font-weight:700;font-size:10.8px;font-family:Arial, sans-serif;white-space:pre;fill:#010100"
     x="54.667339"
     y="312.5119"
     id="text71">Blogroll</text></svg>
