<svg xmlns="http://www.w3.org/2000/svg" width="450" height="450" viewBox="0 0 450 450"><ellipse style="stroke:#000;stroke-width:0" cx="315.003" cy="250" rx="25.006" ry="25" transform="matrix(0.999756, 0.022085, 0, 1.000244, -239.926102, -182.459671)"/><rect width="6.002" height="3.001" x="76.502" y="75.558" style="stroke:#f20544;fill:#f20544"/><rect width="3.001" height="3.001" x="73.5" style="stroke:#f20544;fill:#f20544" y="54.553"/><rect width="3.001" height="3.001" x="70.5" y="57.554" style="stroke:#f20544;fill:#f20544"/><rect width="3.001" height="3.001" x="76.502" y="57.554" style="stroke:#f20544;fill:#f20544"/><rect width="3.001" height="3.001" x="67.499" y="60.555" style="stroke:#f20544;fill:#f20544"/><rect width="3.001" height="3.001" x="64.498" y="63.556" style="stroke:#f20544;fill:#f20544"/><rect width="3.001" height="3.001" x="79.502" y="60.555" style="stroke:#f20544;fill:#f20544"/><rect width="3.001" height="3.001" x="82.503" y="63.556" style="stroke:#f20544;fill:#f20544"/><rect width="3.001" height="15.004" x="61.497" y="72.558" style="stroke:#f20544;fill:#f20544"/><rect width="3.001" height="15.004" x="85.502" y="72.558" style="stroke:#f20544;fill:#f20544"/><rect width="27.007" height="3.001" x="61.497" y="87.561" style="stroke:#f20544;fill:#f20544"/><rect width="3.001" height="3.001" x="61.497" y="66.556" style="stroke:#f20544;fill:#f20544"/><rect width="3.001" height="3.001" x="85.502" y="66.556" style="stroke:#f20544;fill:#f20544"/><rect width="33.008" height="3.001" x="58.497" y="69.557" style="stroke:#f20544;fill:#f20544"/><rect width="6.002" height="6.002" x="67.499" y="81.56" style="stroke:#f20544;fill:#f20544"/><text style="fill:#010100;font-family:Arial,sans-serif;font-size:13.3px;font-weight:700;white-space:pre" x="57.371" y="112.899">Home</text><ellipse style="stroke:#000;stroke-width:0" cx="315.003" cy="250" rx="25.006" ry="25" transform="matrix(0.999756, 0.022085, 0, 1.000244, -139.926224, -181.459183)"/><rect width="15.004" height="3.001" x="167.498" y="59.055" style="fill:#e97b00;stroke-width:0"/><rect width="3.001" height="27.007" x="164.497" y="62.056" style="fill:#e97b00;stroke-width:0"/><rect width="3.001" height="27.007" x="182.502" y="62.056" style="fill:#e97b00;stroke-width:0"/><rect width="15.004" height="3.001" x="167.498" y="65.057" style="fill:#e97b00;stroke-width:0"/><rect width="15.004" height="3.001" x="167.498" y="71.058" style="fill:#e97b00;stroke-width:0"/><rect width="15.004" height="3.001" x="167.498" y="77.059" style="fill:#e97b00;stroke-width:0"/><rect width="15.004" height="3.001" x="167.498" y="83.061" style="fill:#e97b00;stroke-width:0"/><rect width="15.004" height="3.001" x="167.498" y="89.062" style="fill:#e97b00;stroke-width:0"/><text style="fill:#010100;font-family:Arial,sans-serif;font-size:13.3px;font-weight:700;white-space:pre" x="165.65" y="112.048">DB</text><ellipse style="stroke:#000;stroke-width:0" cx="315.003" cy="250" rx="25.006" ry="25" transform="matrix(0.999756, 0.022085, 0, 1.000244, -39.926247, -181.459473)"/><rect width="3.001" height="21.005" x="259.003" y="65.7" style="stroke:#000;fill:#0057b7"/><rect width="9.003" height="3.001" x="262.003" y="62.698" style="stroke:#000;fill:#0057b7"/><rect width="3.001" height="6.002" x="271.006" y="65.7" style="stroke:#000;fill:#0057b7"/><rect width="12.003" height="3.001" x="259.003" y="71.701" style="stroke:#000;stroke-width:0;fill:#0057b7"/><rect width="9.003" height="30.007" x="280.007" y="59.698" style="stroke:#000;fill:#0057b7"/><text style="fill:#010100;font-family:Arial,sans-serif;font-size:13.3px;font-weight:700;white-space:pre" x="262.458" y="112.075">Pen</text><ellipse style="stroke:#000;stroke-width:0" cx="375" cy="75" rx="25" ry="25"/><rect width="3" height="9" x="375" y="81" style="stroke:#000;stroke-width:0;fill:#fff"/><rect width="3" height="6" x="378" y="75" style="stroke:#000;stroke-width:0;fill:#fff"/><rect width="3" height="6" x="381" y="69" style="stroke:#000;stroke-width:0;fill:#fff"/><rect width="9" height="9" x="363" y="81" style="stroke:#000;fill:#7ebae4"/><rect width="3" height="9" x="384" y="60" style="stroke:#000;stroke-width:0;fill:#fff"/><text style="fill:#010100;font-family:Arial,sans-serif;font-size:13.3px;font-weight:700;white-space:pre" x="351.246" y="112.182">Dotfiles</text><ellipse style="stroke:#000;stroke-width:0" cx="75" cy="175" rx="25" ry="25"/><rect width="36" height="3" x="57" y="167.5" style="stroke:#000;stroke-width:0;fill:#cca6c4"/><rect width="3" height="6" x="57" y="170.5" style="stroke:#000;stroke-width:0;fill:#cca6c4"/><rect width="3" height="3" x="59.999" y="176.5" style="stroke:#000;stroke-width:0;fill:#cca6c4"/><rect width="3" height="6" x="90" y="170.5" style="stroke:#000;stroke-width:0;fill:#cca6c4"/><rect width="3" height="3" x="86.999" y="176.5" style="stroke:#000;stroke-width:0;fill:#cca6c4"/><rect width="6" height="3" x="63" y="179.5" style="stroke:#000;stroke-width:0;fill:#cca6c4"/><rect width="6" height="3" x="80.999" y="179.5" style="stroke:#000;stroke-width:0;fill:#cca6c4"/><rect width="3" height="3" x="69" y="176.5" style="stroke:#000;stroke-width:0;fill:#cca6c4"/><rect width="3" height="3" x="78" y="176.5" style="stroke:#000;stroke-width:0;fill:#cca6c4"/><rect width="6" height="6" x="71.999" y="170.5" style="stroke:#000;stroke-width:0;fill:#cca6c4"/><text style="fill:#010100;font-family:Arial,sans-serif;font-size:10.8px;font-weight:700;white-space:pre" x="50" y="209.632">Awesome</text><ellipse style="stroke:#000;stroke-width:0" cx="175" cy="175" rx="25" ry="25"/><rect width="16.698" height="2.385" x="166.902" y="163.165" style="stroke:#000;stroke-width:0;fill:#e7132f"/><rect width="7.156" height="11.927" x="171.673" y="165.551" style="stroke:#000;stroke-width:0;fill:#e7132f"/><rect width="11.927" height="2.385" x="169.288" y="177.478" style="stroke:#000;stroke-width:0;fill:#e7132f"/><rect width="16.698" height="2.385" x="166.902" y="179.864" style="stroke:#000;stroke-width:0;fill:#e7132f"/><rect width="21.469" height="2.385" x="164.517" y="182.249" style="stroke:#000;stroke-width:0;fill:#e7132f"/><rect width="2.385" height="7.156" x="174.059" y="184.635" style="stroke:#000;stroke-width:0;fill:#e7132f"/><rect width="11.927" height="2.385" x="169.288" style="stroke:#000;stroke-width:0;fill:#e7132f" y="160.78"/><text style="fill:#010100;font-family:Arial,sans-serif;font-size:11.5px;font-weight:700;white-space:pre" x="150" y="210.325">Pinboard</text><ellipse style="stroke:#000;stroke-width:0" cx="275" cy="175" rx="25" ry="25"/><rect width="3" height="6" x="262" y="183" style="stroke:#000;stroke-width:0;stroke-opacity:0;fill:#e44233"/><rect width="3" height="6" x="265" y="180" style="stroke:#000;stroke-width:0;stroke-opacity:0;fill:#e44233"/><rect width="3" height="6" x="268" y="177" style="stroke:#000;stroke-width:0;stroke-opacity:0;fill:#e44233"/><rect width="3" height="6" x="271" y="174" style="stroke:#000;stroke-width:0;stroke-opacity:0;fill:#e44233"/><rect width="3" height="6" x="274" y="171" style="stroke:#000;stroke-width:0;stroke-opacity:0;fill:#e44233"/><rect width="3" height="6" x="277" y="168" style="stroke:#000;stroke-width:0;stroke-opacity:0;fill:#e44233"/><rect width="3" height="6" x="280" y="165" style="stroke:#000;stroke-width:0;stroke-opacity:0;fill:#e44233"/><rect width="3" height="6" x="283" y="162" style="stroke:#000;stroke-width:0;stroke-opacity:0;fill:#e44233"/><rect width="3" height="6" x="286" y="159" style="stroke:#000;stroke-width:0;stroke-opacity:0;fill:#e44233"/><rect width="3" height="12" x="259" y="174" style="stroke:#000;stroke-width:0;stroke-opacity:0;fill:#e44233"/><rect width="3" height="6" x="256" y="177" style="stroke:#000;stroke-width:0;stroke-opacity:0;fill:#e44233"/><text style="fill:#010100;font-family:Arial,sans-serif;font-size:13.3px;font-weight:700;white-space:pre" x="260.5" y="212.079">Todo</text><text style="white-space:pre;fill:#333;font-family:Arial,sans-serif;font-size:9.4px" x="327.049" y="216.407">`</text><ellipse style="stroke:#000;stroke-width:0" cx="375" cy="175" rx="25" ry="25"/><rect width="3" height="33" x="362" y="159" style="stroke:#000;stroke-width:0;fill:#3da639"/><rect width="3" height="33" x="383" y="159" style="stroke:#000;stroke-width:0;fill:#3da639"/><rect width="18" height="3" x="365" y="159" style="stroke:#000;stroke-width:0;fill:#3da639"/><rect width="18" height="3" x="365" y="189" style="stroke:#000;stroke-width:0;fill:#3da639"/><rect width="3" height="3" x="368" y="165" style="stroke:#000;stroke-width:0;fill:#3da639"/><rect width="12" height="3" x="368" y="171" style="stroke:#000;stroke-width:0;fill:#3da639"/><rect width="12" height="3" x="368" y="176.999" style="stroke:#000;stroke-width:0;fill:#3da639"/><rect width="12" height="3" x="368" y="183" style="stroke:#000;stroke-width:0;fill:#3da639"/><rect width="6" height="3" x="373.999" y="165.171" style="stroke:#000;stroke-width:0;fill:#3da639"/><text style="fill:#010100;font-family:Arial,sans-serif;font-size:13.3px;font-weight:700;white-space:pre" x="359.765" y="211.984">Todo</text><ellipse style="fill:#121212;stroke:#121212" cx="75.502" cy="275.121" rx="24.879" ry="24.879"/><path d="M 75.502 250.242 C 84.952 250.242 93.171 255.51 97.383 263.27 L 87.539 280.515 L 62.565 266.26 L 71.528 250.558 C 72.822 250.35 74.15 250.242 75.502 250.242 Z M 67.56 269.111 L 82.545 277.664 L 79.694 282.659 L 71.706 278.1 L 74.699 279.809 L 68.997 289.798 L 64.002 286.947 L 69.704 276.957 L 64.709 274.106 L 67.56 269.111 Z" style="opacity:1;fill:#583fcb;stroke:#583fcb"/><path d="M 85.498 272.76 L 70.513 264.206 L 78.371 250.441 C 84.441 251.116 89.852 253.974 93.8 258.214 L 85.498 272.76 Z" style="stroke:#bd8bf2;fill:#bd8bf2"/><rect width="5.772" height="5.772" x="43.519" y="13.315" style="fill:#bd8bf2;stroke:#bd8bf2" transform="matrix(0.868484, 0.495718, -0.495718, 0.868484, 35.688808, 248.772156)"/><text style="fill:#010100;font-family:Arial,sans-serif;font-size:10.8px;font-weight:700;white-space:pre" x="49.619" y="309.64" transform="matrix(1, 0, 0, 1, 10.380005, 0.000309)">Notes<tspan x="49.619" dy="1em">​</tspan></text></svg>