<svg xmlns="http://www.w3.org/2000/svg" width="9" height="13" fill="none" viewBox="0 0 9 13"><path fill="#05F2C7" fill-rule="evenodd" d="M2.25 10.8333H6.75V11.9167H2.25V10.8333ZM2.25 11.9167H3.375V13H2.25V11.9167ZM6.75 11.9167H5.625V13H6.75V11.9167Z" clip-rule="evenodd"/><rect width="1.125" height="2.167" x="1.125" y="10.833" fill="#05C7F2"/><rect width="1.125" height="1.083" x="4.5" y="11.917" fill="#05C7F2"/><path fill="#FF6B79" fill-rule="evenodd" d="M2.25 6.5H1.125V8.66667H2.25V10.8333H6.75V6.5H2.25Z" clip-rule="evenodd"/><rect width="1.125" height="2.167" x="1.125" y="8.667" fill="#FEE868"/><rect width="1.125" height="2.167" y="6.5" fill="#F9006F"/><rect width="1.125" height="2.167" y="8.667" fill="#FFC352"/><path fill="#05C7F2" fill-rule="evenodd" d="M5.625 0H4.5V1.08334H1.125V2.16666H0V6.5H9V2.16667V1.08334H5.625V0Z" clip-rule="evenodd"/><rect width="5.625" height="3.25" x="2.25" y="3.25" fill="#FEE868"/><rect width="1.125" height="1.083" x="3.375" y="4.333" fill="#F9006F"/><path fill="#05F2C7" fill-rule="evenodd" d="M6.75 0H5.625V1.08333H6.75V0ZM9 3.25V1.08333H2.25L2.25 3.25H1.125V6.5H2.25L2.25 4.33333H3.375V3.25H5.625V4.33333H6.75V5.41667H9V3.25Z" clip-rule="evenodd"/></svg>