<svg width="9" height="13" viewBox="0 0 9 13" fill="none" xmlns="http://www.w3.org/2000/svg">
<path fill-rule="evenodd" clip-rule="evenodd" d="M2.25 10.8333H6.75V11.9167H2.25V10.8333ZM2.25 11.9167H3.375V13H2.25V11.9167ZM6.75 11.9167H5.625V13H6.75V11.9167Z" fill="#05F2C7"/>
<rect x="1.125" y="10.8333" width="1.125" height="2.16667" fill="#05C7F2"/>
<rect x="4.5" y="11.9167" width="1.125" height="1.08333" fill="#05C7F2"/>
<path fill-rule="evenodd" clip-rule="evenodd" d="M2.25 6.5H1.125V8.66667H2.25V10.8333H6.75V6.5H2.25Z" fill="#FF6B79"/>
<rect x="1.125" y="8.66666" width="1.125" height="2.16667" fill="#FEE868"/>
<rect y="6.5" width="1.125" height="2.16667" fill="#F9006F"/>
<rect y="8.66666" width="1.125" height="2.16667" fill="#FFC352"/>
<path fill-rule="evenodd" clip-rule="evenodd" d="M5.625 0H4.5V1.08334H1.125V2.16666H0V6.5H9V2.16667V1.08334H5.625V0Z" fill="#05C7F2"/>
<rect x="2.25" y="3.25" width="5.625" height="3.25" fill="#FEE868"/>
<rect x="3.375" y="4.33334" width="1.125" height="1.08333" fill="#F9006F"/>
<path fill-rule="evenodd" clip-rule="evenodd" d="M6.75 0H5.625V1.08333H6.75V0ZM9 3.25V1.08333H2.25L2.25 3.25H1.125V6.5H2.25L2.25 4.33333H3.375V3.25H5.625V4.33333H6.75V5.41667H9V3.25Z" fill="#05F2C7"/>
</svg>
