<svg width="16" height="16" viewBox="0 0 16 16" fill="none" xmlns="http://www.w3.org/2000/svg">
<g clip-path="url(#clip0_601_2)">
<circle cx="8" cy="8" r="8" fill="black"/>
<path fill-rule="evenodd" clip-rule="evenodd" d="M5 11H3.5V14H5L5 17H11V11H5Z" fill="#FF6B79"/>
<rect x="3.5" y="14" width="1.5" height="3" fill="#FEE868"/>
<rect x="2" y="11" width="1.5" height="3" fill="#F9006F"/>
<rect x="2" y="14" width="1.5" height="3" fill="#FFC352"/>
<path fill-rule="evenodd" clip-rule="evenodd" d="M9.5 2H8V3.5H3.5V5L8 5H9.5L14 5V3.5H9.5V2ZM2 11V5H14V11H2Z" fill="#05C7F2"/>
<rect x="5" y="6.5" width="7.5" height="4.5" fill="#FEE868"/>
<rect x="6.5" y="8" width="1.5" height="1.5" fill="#F9006F"/>
<path fill-rule="evenodd" clip-rule="evenodd" d="M11 2H9.5V3.5L5 3.5V6.5H14V3.5L11 3.5V2ZM11 8L11 9.5H14V6.5H11H9.5V8H11ZM6.5 6.5H5H3.5V11H5L5 8H6.5V6.5Z" fill="#05F2C7"/>
</g>
<defs>
<clipPath id="clip0_601_2">
<rect width="16" height="16" fill="white"/>
</clipPath>
</defs>
</svg>
